<svg width="159" height="62" viewBox="0 0 159 62" fill="none" xmlns="http://www.w3.org/2000/svg">
<path d="M8.51674 43.004C14.0482 43.004 17.1629 45.6144 17.1629 50.2866C17.1629 54.9308 14.0805 57.5692 8.61357 57.5692H6.38244V61.5127H0.5V43L8.51674 43.004ZM8.60954 52.961C10.4332 52.961 11.4701 51.9881 11.4701 50.2906C11.4701 48.7132 10.4009 47.8324 8.48447 47.8324H6.37841V52.961H8.60954Z" fill="#E31E2E"/>
<path d="M32.5629 59.4266C30.1099 61.0961 27.9433 61.7927 25.3329 61.7927C20.4914 61.7927 17.4735 59.1824 17.4735 54.2339C17.4735 49.1974 20.3986 46.4629 25.3329 46.4629C29.767 46.4629 32.5629 48.9812 32.5629 53.5653C32.5629 54.2339 32.5307 54.7504 32.4379 55.5991H22.9767C23.2592 56.9964 24.0459 57.5729 25.5871 57.5729C27.6609 57.5729 29.0125 57.1766 30.9612 56.2998L32.5629 59.4266ZM27.6286 52.6885C27.5641 51.0791 26.7814 50.2303 25.3329 50.2303C24.0459 50.2303 23.1946 51.019 22.9445 52.6885H27.6286Z" fill="#E31E2E"/>
<path d="M44.5739 60.6676C43.5048 61.3042 41.5561 61.7606 39.8575 61.7606C36.1779 61.7606 34.6085 60.1231 34.6085 55.9033V51.2911H32.5347V46.7711H34.6085V43.6162H40.2973V46.7711H43.88V51.2911H40.2973V55.6631C40.2973 56.7561 40.6442 57.3927 42.0563 57.3927C42.718 57.3927 43.2829 57.3927 44.0051 57.3606L44.5739 60.6676Z" fill="#E31E2E"/>
<path d="M59.6472 43.004C65.1786 43.004 68.2933 45.6144 68.2933 50.2866C68.2933 54.9308 65.2109 57.5692 59.744 57.5692H57.5129V61.5127H51.6345V43L59.6472 43.004ZM59.74 52.961C61.5636 52.961 62.6005 51.9881 62.6005 50.2906C62.6005 48.7132 61.5314 47.8324 59.6149 47.8324H57.5089V52.961H59.74Z" fill="#00B6BC"/>
<path d="M68.8542 47.6198C72.5619 46.647 74.1032 46.4668 75.6444 46.4668C80.2035 46.4668 82.1199 48.2564 82.1199 52.5363V61.5204H76.4916V59.7908C75.3297 61.064 74.0104 61.7926 72.3441 61.7926C69.1689 61.7926 67.3452 60.7317 67.3452 57.1204C67.3452 53.9936 69.5158 52.5363 73.8207 52.5363H76.4916C76.4916 51.2631 76.1124 50.6225 74.5752 50.6225C73.4738 50.6225 71.8398 50.8347 69.7014 51.2591L68.8542 47.6198ZM74.6075 55.1146C73.3487 55.1146 72.6265 55.4469 72.6265 56.4198C72.6265 57.3006 73.2882 57.8451 74.2605 57.8451C75.1723 57.8451 75.8945 57.4487 76.4916 56.9643V55.1146H74.6075Z" fill="#00B6BC"/>
<path d="M89.2248 49.5899C90.3585 47.436 91.5205 46.4951 93.2191 46.4951C93.7516 46.4951 94.256 46.4951 95.1032 46.5872L94.724 52.1722C93.9695 52.1122 93.4652 52.1122 92.9326 52.1122C91.0767 52.1122 89.8219 52.5686 89.2248 54.6625V61.5207H83.536V46.7393H89.2248V49.5899Z" fill="#00B6BC"/>
<path d="M109.785 59.4266C107.332 61.0961 105.166 61.7927 102.555 61.7927C97.7136 61.7927 94.6957 59.1824 94.6957 54.2339C94.6957 49.1974 97.6208 46.4629 102.555 46.4629C106.989 46.4629 109.785 48.9812 109.785 53.5653C109.785 54.2339 109.753 54.7504 109.66 55.5991H100.199C100.481 56.9964 101.268 57.5729 102.809 57.5729C104.883 57.5729 106.235 57.1766 108.183 56.2998L109.785 59.4266ZM104.847 52.6885C104.782 51.0791 104 50.2303 102.551 50.2303C101.264 50.2303 100.413 51.019 100.163 52.6885H104.847Z" fill="#00B6BC"/>
<path d="M116.414 48.713C118.427 47.1957 119.904 46.499 121.631 46.499C124.838 46.499 126.065 48.1085 126.065 52.1121V61.5206H120.376V53.6895C120.376 52.1401 120.093 51.6557 118.96 51.6557C117.983 51.6557 117.168 52.2002 116.414 53.0209V61.5206H110.725V46.7392H116.414V48.713Z" fill="#00B6BC"/>
<path d="M138.358 60.6676C137.289 61.3042 135.34 61.7606 133.642 61.7606C129.962 61.7606 128.393 60.1231 128.393 55.9033V51.2911H126.319V46.7711H128.393V43.6162H134.081V46.7711H137.664V51.2911H134.081V55.6631C134.081 56.7561 134.428 57.3927 135.841 57.3927C136.502 57.3927 137.067 57.3927 137.789 57.3606L138.358 60.6676Z" fill="#00B6BC"/>
<path d="M150.615 51.2912C148.005 50.5345 146.246 50.3503 145.427 50.3503C144.922 50.3503 144.483 50.5024 144.483 50.9589C144.483 51.6555 145.237 51.6555 147.973 52.4162C150.865 53.2369 152.092 54.39 152.092 56.7881C152.092 60.0351 149.578 61.7966 145.774 61.7966C143.635 61.7966 140.65 61.04 138.294 59.9149L139.677 56.2116C142.005 57.2445 144.172 57.8491 145.366 57.8491C146.153 57.8491 146.435 57.6649 146.435 57.3046C146.435 56.696 145.649 56.608 143.26 55.9073C140.4 55.0586 139.141 53.8455 139.141 51.2631C139.141 48.3485 141.311 46.4668 144.705 46.4668C146.778 46.4668 148.727 46.5869 151.967 47.4677L150.615 51.2912Z" fill="#00B6BC"/>
<path d="M73.439 13.7164C76.356 13.7164 78.7323 10.6416 78.7323 6.85819C78.7323 3.07478 76.36 0 73.439 0C70.5179 0 68.1456 3.07478 68.1456 6.85819C68.1456 10.6416 70.5179 13.7164 73.439 13.7164Z" fill="#00B6BC"/>
<path d="M84.6915 13.7164C87.6085 13.7164 89.9848 10.6416 89.9848 6.85819C89.9848 3.07478 87.6085 0 84.6915 0C81.7704 0 79.3981 3.07478 79.3981 6.85819C79.3981 10.6416 81.7744 13.7164 84.6915 13.7164Z" fill="#E31E2E"/>
<path d="M90.1018 22.4085C89.0649 20.8632 87.6246 19.3258 85.8252 17.8364C82.7952 15.3302 79.8096 13.8368 79.6805 13.7727C79.5554 13.7127 79.4182 13.6807 79.2851 13.6807C79.1479 13.6807 79.0148 13.7127 78.8897 13.7727C78.7646 13.8368 75.779 15.3302 72.745 17.8364C70.9456 19.3258 69.5052 20.8632 68.4683 22.4085C67.1329 24.3983 66.451 26.4122 66.451 28.39C66.451 32.1413 69.5294 35.1961 73.3098 35.1961C75.8678 35.1961 78.1029 33.7988 79.281 31.733C80.4591 33.7988 82.6943 35.1961 85.2522 35.1961C89.0327 35.1961 92.1111 32.1413 92.1111 28.39C92.1151 26.4122 91.4373 24.3983 90.1018 22.4085ZM84.3041 24.7827C83.824 25.4993 83.1543 26.212 82.3191 26.9046C80.911 28.0697 79.5272 28.7623 79.4666 28.7903C79.4101 28.8183 79.3456 28.8344 79.281 28.8344C79.2165 28.8344 79.156 28.8183 79.0955 28.7903C79.039 28.7623 77.6511 28.0697 76.243 26.9046C75.4078 26.212 74.7381 25.4993 74.258 24.7827C73.6366 23.8579 73.3219 22.925 73.3219 22.0042C73.3219 20.2626 74.7502 18.8453 76.5052 18.8453C77.6914 18.8453 78.7283 19.4939 79.277 20.4508C79.8257 19.4939 80.8626 18.8453 82.0488 18.8453C83.8038 18.8453 85.2321 20.2626 85.2321 22.0042C85.2401 22.925 84.9254 23.8579 84.3041 24.7827Z" fill="#E31E2E"/>
<path d="M65.1842 10.3018C62.5576 10.3018 60.5 12.8681 60.5 16.147C60.5 19.422 62.5576 21.9883 65.1842 21.9883C67.8107 21.9883 69.8683 19.422 69.8683 16.147C69.8683 12.8681 67.8107 10.3018 65.1842 10.3018Z" fill="#00B6BC"/>
<path d="M93.386 10.3018C90.7595 10.3018 88.7018 12.8681 88.7018 16.147C88.7018 19.422 90.7595 21.9883 93.386 21.9883C96.0125 21.9883 98.0702 19.422 98.0702 16.147C98.0702 12.8681 96.0125 10.3018 93.386 10.3018Z" fill="#E31E2E"/>
<path d="M156.139 49.1571C154.88 49.1571 153.855 48.1402 153.855 46.891C153.855 45.6379 154.88 44.625 156.139 44.625C157.397 44.625 158.422 45.6419 158.422 46.891C158.426 48.1442 157.401 49.1571 156.139 49.1571ZM156.139 44.7531C154.948 44.7531 153.984 45.71 153.984 46.891C153.984 48.0721 154.948 49.029 156.139 49.029C157.329 49.029 158.293 48.0721 158.293 46.891C158.297 45.71 157.329 44.7531 156.139 44.7531ZM157.184 48.1041H157.034L156.377 46.9871H155.618V48.1041H155.489V45.71H156.369C156.748 45.71 157.107 45.9382 157.107 46.3466C157.107 46.6909 156.845 46.9231 156.514 46.9711L157.184 48.1041ZM156.373 46.859C156.683 46.859 156.982 46.6869 156.982 46.3466C156.982 46.0062 156.679 45.8341 156.373 45.8341H155.618V46.855L156.373 46.859Z" fill="#00B6BC"/>
<path d="M156.139 49.2577C154.823 49.2577 153.754 48.1967 153.754 46.8915C153.754 45.5864 154.823 44.5254 156.139 44.5254C157.454 44.5254 158.523 45.5864 158.523 46.8915C158.527 48.1967 157.454 49.2577 156.139 49.2577ZM156.139 44.8537C155.005 44.8537 154.085 45.7665 154.085 46.8915C154.085 48.0165 155.005 48.9294 156.139 48.9294C157.272 48.9294 158.192 48.0165 158.192 46.8915C158.196 45.7665 157.272 44.8537 156.139 44.8537ZM157.357 48.2047H156.978L156.32 47.0877H155.719V48.2047H155.388V45.6104H156.369C156.788 45.6104 157.208 45.8626 157.208 46.347C157.208 46.6713 156.998 46.9356 156.671 47.0397L157.357 48.2047ZM155.719 46.7594H156.373C156.619 46.7594 156.881 46.6313 156.881 46.347C156.881 46.0628 156.615 45.9347 156.373 45.9347H155.719V46.7594Z" fill="#00B6BC"/>
</svg>
